# Wavefront Obj file
# 
# verts: 12 uv-s: 12
mtllib Photostend.mtl

g Cube
#pivot 0.000000 0.000000 0.000000

v 348.225647 0.134613 349.305298
v -349.305359 0.134796 348.225647
v 349.305481 597.435181 -348.225769
v -348.225525 597.435303 -349.305420
v 349.305359 145.759903 -348.225708
v 349.079895 0.134552 -202.600449
v -348.451111 0.134705 -203.680069
v -348.225647 145.760071 -349.305359
v 349.270630 77.227997 -325.790588
v 349.188416 24.159180 -272.721863
v -348.342590 24.159332 -273.801514
v -348.260376 77.228165 -326.870239
# 12 positions

vt 0.858414 0.750000
vt 0.858414 0.500000
vt 0.875000 0.500000
vt 0.875000 0.750000
vt 0.625000 0.500000
vt 0.822807 0.500000
vt 0.822807 0.750000
vt 0.625000 0.750000
vt 0.875000 0.500000
vt 0.875000 0.750000
vt 0.839393 0.750000
vt 0.839393 0.500000
# 12 texture coordinates

vn 0.000000 1.000000 -0.000000
vn 0.000000 1.000000 -0.000000
vn -0.001548 0.000000 0.999999
vn -0.001548 0.000000 0.999999
vn -0.001528 0.157527 0.987514
vn -0.000254 0.986412 0.164292
vn -0.000254 0.986412 0.164292
vn -0.001528 0.157527 0.987513
vn -0.001319 0.523441 0.852061
vn -0.000819 0.848454 0.529269
vn -0.000819 0.848454 0.529269
vn -0.001319 0.523442 0.852061
# 12 normals

usemtl phong1
f 12/1/12 9/2/9 5/3/5 8/4/8
f 1/5/1 6/6/6 7/7/7 2/8/2
f 8/4/8 5/3/5 3/9/3 4/10/4
f 9/2/9 12/1/12 11/11/11 10/12/10
f 7/7/7 6/6/6 10/12/10 11/11/11

# 5 faces
